<mxfile host="app.diagrams.net" modified="2021-10-13T11:53:21.405Z" agent="5.0 (Windows NT 10.0; Win64; x64) AppleWebKit/537.36 (KHTML, like Gecko) Chrome/94.0.4606.71 Safari/537.36 Edg/94.0.992.38" etag="Lwdc2TOM0O8VW3FeIo5H" version="15.5.2" type="github">
  <diagram id="gFA7WbcU7uWOlMWJ3cwr" name="Page-1">
    <mxGraphModel dx="2076" dy="1158" grid="1" gridSize="10" guides="1" tooltips="1" connect="1" arrows="1" fold="1" page="1" pageScale="1" pageWidth="1600" pageHeight="900" math="0" shadow="0">
      <root>
        <mxCell id="0" />
        <mxCell id="1" parent="0" />
        <mxCell id="VWafMa577CUfXfnvmA4W-34" value="" style="group" vertex="1" connectable="0" parent="1">
          <mxGeometry x="225" y="30" width="130" height="320" as="geometry" />
        </mxCell>
        <mxCell id="VWafMa577CUfXfnvmA4W-27" value="Регистрация" style="rounded=0;whiteSpace=wrap;html=1;fontSize=18;" vertex="1" parent="VWafMa577CUfXfnvmA4W-34">
          <mxGeometry y="250" width="130" height="70" as="geometry" />
        </mxCell>
        <mxCell id="VWafMa577CUfXfnvmA4W-31" value="" style="group" vertex="1" connectable="0" parent="VWafMa577CUfXfnvmA4W-34">
          <mxGeometry width="130" height="240" as="geometry" />
        </mxCell>
        <mxCell id="VWafMa577CUfXfnvmA4W-20" value="" style="rounded=1;whiteSpace=wrap;html=1;fontSize=18;fillColor=#f5f5f5;gradientColor=#b3b3b3;strokeColor=#666666;" vertex="1" parent="VWafMa577CUfXfnvmA4W-31">
          <mxGeometry width="130" height="240" as="geometry" />
        </mxCell>
        <mxCell id="VWafMa577CUfXfnvmA4W-28" value="" style="group" vertex="1" connectable="0" parent="VWafMa577CUfXfnvmA4W-31">
          <mxGeometry x="8" y="20" width="115" height="190" as="geometry" />
        </mxCell>
        <mxCell id="VWafMa577CUfXfnvmA4W-21" value="" style="rounded=0;whiteSpace=wrap;html=1;fontSize=20;fillColor=#FFF0CC;" vertex="1" parent="VWafMa577CUfXfnvmA4W-28">
          <mxGeometry width="115" height="190" as="geometry" />
        </mxCell>
        <mxCell id="VWafMa577CUfXfnvmA4W-52" value="" style="edgeStyle=orthogonalEdgeStyle;rounded=0;orthogonalLoop=1;jettySize=auto;html=1;fontSize=18;" edge="1" parent="VWafMa577CUfXfnvmA4W-28" source="VWafMa577CUfXfnvmA4W-22" target="VWafMa577CUfXfnvmA4W-24">
          <mxGeometry relative="1" as="geometry" />
        </mxCell>
        <mxCell id="VWafMa577CUfXfnvmA4W-22" value="&lt;font style=&quot;font-size: 13px&quot;&gt;Владивосток&lt;/font&gt;" style="rounded=0;whiteSpace=wrap;html=1;fontSize=18;strokeWidth=2;align=center;" vertex="1" parent="VWafMa577CUfXfnvmA4W-28">
          <mxGeometry x="12.5" y="10" width="87.5" height="20" as="geometry" />
        </mxCell>
        <mxCell id="VWafMa577CUfXfnvmA4W-24" value="" style="rounded=0;whiteSpace=wrap;html=1;fontSize=20;strokeWidth=2;align=center;fillColor=#EDEDED;" vertex="1" parent="VWafMa577CUfXfnvmA4W-28">
          <mxGeometry x="12.5" y="30" width="90" height="140" as="geometry" />
        </mxCell>
        <mxCell id="VWafMa577CUfXfnvmA4W-25" value="" style="rounded=0;whiteSpace=wrap;html=1;fontSize=18;strokeWidth=2;align=center;" vertex="1" parent="VWafMa577CUfXfnvmA4W-28">
          <mxGeometry x="82.5" y="10" width="20" height="20" as="geometry" />
        </mxCell>
        <mxCell id="VWafMa577CUfXfnvmA4W-53" value="" style="triangle;whiteSpace=wrap;html=1;rounded=0;fontSize=18;strokeWidth=1;align=center;rotation=-180;fillColor=#030303;" vertex="1" parent="VWafMa577CUfXfnvmA4W-28">
          <mxGeometry x="82.5" y="10" width="20" height="20" as="geometry" />
        </mxCell>
        <mxCell id="VWafMa577CUfXfnvmA4W-36" value="&lt;h1&gt;User flow Eatalian pizza&lt;/h1&gt;" style="text;html=1;strokeColor=none;fillColor=none;spacing=5;spacingTop=-20;whiteSpace=wrap;overflow=hidden;rounded=0;fontSize=18;align=center;" vertex="1" parent="1">
          <mxGeometry x="1290" y="20" width="300" height="120" as="geometry" />
        </mxCell>
        <mxCell id="VWafMa577CUfXfnvmA4W-51" value="" style="group" vertex="1" connectable="0" parent="1">
          <mxGeometry x="400" y="120" width="130" height="240" as="geometry" />
        </mxCell>
        <mxCell id="VWafMa577CUfXfnvmA4W-38" value="" style="rounded=1;whiteSpace=wrap;html=1;fontSize=18;fillColor=#f5f5f5;gradientColor=#b3b3b3;strokeColor=#666666;" vertex="1" parent="VWafMa577CUfXfnvmA4W-51">
          <mxGeometry width="130" height="240" as="geometry" />
        </mxCell>
        <mxCell id="VWafMa577CUfXfnvmA4W-39" value="" style="rounded=0;whiteSpace=wrap;html=1;fontSize=20;strokeWidth=1;align=center;fillColor=#FFF0CC;" vertex="1" parent="VWafMa577CUfXfnvmA4W-51">
          <mxGeometry x="10" y="20" width="110" height="190" as="geometry" />
        </mxCell>
        <mxCell id="VWafMa577CUfXfnvmA4W-41" value="" style="rounded=0;whiteSpace=wrap;html=1;fontSize=20;strokeWidth=1;align=center;" vertex="1" parent="VWafMa577CUfXfnvmA4W-51">
          <mxGeometry x="10" y="180" width="110" height="30" as="geometry" />
        </mxCell>
        <mxCell id="VWafMa577CUfXfnvmA4W-43" value="" style="rounded=0;whiteSpace=wrap;html=1;fontSize=18;strokeWidth=1;align=center;fillColor=#FFB570;" vertex="1" parent="VWafMa577CUfXfnvmA4W-51">
          <mxGeometry x="16" y="190" width="20" height="10" as="geometry" />
        </mxCell>
        <mxCell id="VWafMa577CUfXfnvmA4W-44" value="" style="rounded=0;whiteSpace=wrap;html=1;fontSize=18;strokeWidth=1;align=center;fillColor=#FFB570;" vertex="1" parent="VWafMa577CUfXfnvmA4W-51">
          <mxGeometry x="55" y="190" width="20" height="10" as="geometry" />
        </mxCell>
        <mxCell id="VWafMa577CUfXfnvmA4W-45" value="" style="rounded=0;whiteSpace=wrap;html=1;fontSize=18;strokeWidth=1;align=center;fillColor=#FFB570;" vertex="1" parent="VWafMa577CUfXfnvmA4W-51">
          <mxGeometry x="93" y="190" width="20" height="10" as="geometry" />
        </mxCell>
        <mxCell id="VWafMa577CUfXfnvmA4W-46" value="" style="rounded=0;whiteSpace=wrap;html=1;fontSize=18;strokeWidth=1;align=center;" vertex="1" parent="VWafMa577CUfXfnvmA4W-51">
          <mxGeometry x="20" y="30" width="90" height="30" as="geometry" />
        </mxCell>
        <mxCell id="VWafMa577CUfXfnvmA4W-47" value="" style="rounded=0;whiteSpace=wrap;html=1;fontSize=18;strokeWidth=1;align=center;" vertex="1" parent="VWafMa577CUfXfnvmA4W-51">
          <mxGeometry x="20" y="70" width="90" height="90" as="geometry" />
        </mxCell>
        <mxCell id="VWafMa577CUfXfnvmA4W-48" value="" style="endArrow=none;html=1;rounded=0;fontSize=18;entryX=0.5;entryY=0;entryDx=0;entryDy=0;exitX=0.5;exitY=1;exitDx=0;exitDy=0;" edge="1" parent="VWafMa577CUfXfnvmA4W-51" source="VWafMa577CUfXfnvmA4W-46" target="VWafMa577CUfXfnvmA4W-46">
          <mxGeometry width="50" height="50" relative="1" as="geometry">
            <mxPoint x="390" y="270" as="sourcePoint" />
            <mxPoint x="440" y="220" as="targetPoint" />
          </mxGeometry>
        </mxCell>
        <mxCell id="VWafMa577CUfXfnvmA4W-49" value="" style="rounded=1;whiteSpace=wrap;html=1;fontSize=18;strokeWidth=1;align=center;fillColor=#EBEBEB;strokeColor=#EBEBEB;" vertex="1" parent="VWafMa577CUfXfnvmA4W-51">
          <mxGeometry x="26.5" y="80" width="77" height="30" as="geometry" />
        </mxCell>
        <mxCell id="VWafMa577CUfXfnvmA4W-62" value="Авторизация" style="rounded=0;whiteSpace=wrap;html=1;fontSize=18;strokeWidth=1;align=center;" vertex="1" parent="1">
          <mxGeometry x="225" y="440" width="130" height="70" as="geometry" />
        </mxCell>
        <mxCell id="VWafMa577CUfXfnvmA4W-67" value="Главный экран" style="rhombus;whiteSpace=wrap;html=1;rounded=0;fontSize=18;strokeWidth=1;align=center;" vertex="1" parent="1">
          <mxGeometry x="390" y="365" width="150" height="90" as="geometry" />
        </mxCell>
        <mxCell id="VWafMa577CUfXfnvmA4W-78" value="" style="endArrow=classic;html=1;rounded=0;fontSize=18;exitX=1;exitY=0.5;exitDx=0;exitDy=0;entryX=0;entryY=0.5;entryDx=0;entryDy=0;" edge="1" parent="1" source="VWafMa577CUfXfnvmA4W-67" target="VWafMa577CUfXfnvmA4W-89">
          <mxGeometry width="50" height="50" relative="1" as="geometry">
            <mxPoint x="790" y="560" as="sourcePoint" />
            <mxPoint x="600" y="435" as="targetPoint" />
          </mxGeometry>
        </mxCell>
        <mxCell id="VWafMa577CUfXfnvmA4W-83" value="Меню" style="rounded=0;whiteSpace=wrap;html=1;fontSize=20;strokeWidth=1;align=center;" vertex="1" parent="1">
          <mxGeometry x="200" y="550" width="120" height="60" as="geometry" />
        </mxCell>
        <mxCell id="VWafMa577CUfXfnvmA4W-88" value="Корзина" style="rounded=0;whiteSpace=wrap;html=1;fontSize=20;strokeWidth=1;align=center;" vertex="1" parent="1">
          <mxGeometry x="860" y="550" width="120" height="60" as="geometry" />
        </mxCell>
        <mxCell id="VWafMa577CUfXfnvmA4W-89" value="Профиль" style="rhombus;whiteSpace=wrap;html=1;rounded=0;fontSize=18;strokeWidth=1;align=center;" vertex="1" parent="1">
          <mxGeometry x="605" y="370" width="130" height="80" as="geometry" />
        </mxCell>
        <mxCell id="VWafMa577CUfXfnvmA4W-91" value="История заказов" style="rounded=0;whiteSpace=wrap;html=1;fontSize=18;strokeWidth=1;align=center;" vertex="1" parent="1">
          <mxGeometry x="610" y="290" width="120" height="60" as="geometry" />
        </mxCell>
        <mxCell id="VWafMa577CUfXfnvmA4W-94" value="Контакты" style="rounded=0;whiteSpace=wrap;html=1;fontSize=20;strokeWidth=1;align=center;" vertex="1" parent="1">
          <mxGeometry x="520" y="550" width="120" height="60" as="geometry" />
        </mxCell>
        <mxCell id="VWafMa577CUfXfnvmA4W-32" value="" style="group" vertex="1" connectable="0" parent="1">
          <mxGeometry x="20" y="290" width="130" height="240" as="geometry" />
        </mxCell>
        <mxCell id="VWafMa577CUfXfnvmA4W-2" value="" style="rounded=1;whiteSpace=wrap;html=1;fontSize=18;fillColor=#f5f5f5;gradientColor=#b3b3b3;strokeColor=#666666;" vertex="1" parent="VWafMa577CUfXfnvmA4W-32">
          <mxGeometry width="130" height="240" as="geometry" />
        </mxCell>
        <mxCell id="VWafMa577CUfXfnvmA4W-29" value="" style="group" vertex="1" connectable="0" parent="VWafMa577CUfXfnvmA4W-32">
          <mxGeometry x="7.5" y="20" width="115" height="190" as="geometry" />
        </mxCell>
        <mxCell id="VWafMa577CUfXfnvmA4W-3" value="" style="rounded=0;whiteSpace=wrap;html=1;fontSize=20;fillColor=#FFF0CC;" vertex="1" parent="VWafMa577CUfXfnvmA4W-29">
          <mxGeometry width="115" height="190" as="geometry" />
        </mxCell>
        <mxCell id="VWafMa577CUfXfnvmA4W-16" value="" style="ellipse;whiteSpace=wrap;html=1;aspect=fixed;rounded=0;fontSize=18;align=center;fillColor=#FFB570;strokeWidth=3;strokeColor=#E3A164;" vertex="1" parent="VWafMa577CUfXfnvmA4W-29">
          <mxGeometry x="22.5" y="30" width="70" height="70" as="geometry" />
        </mxCell>
        <mxCell id="VWafMa577CUfXfnvmA4W-17" value="" style="rounded=1;whiteSpace=wrap;html=1;fontSize=18;strokeWidth=3;align=center;arcSize=50;fillColor=#FF9A4D;strokeColor=#FFB570;" vertex="1" parent="VWafMa577CUfXfnvmA4W-29">
          <mxGeometry x="24.5" y="130" width="65" height="30" as="geometry" />
        </mxCell>
        <mxCell id="VWafMa577CUfXfnvmA4W-54" value="&lt;font style=&quot;font-size: 17px&quot;&gt;Добро пожаловать&lt;/font&gt;" style="text;html=1;strokeColor=none;fillColor=none;align=center;verticalAlign=middle;whiteSpace=wrap;rounded=0;fontSize=15;" vertex="1" parent="VWafMa577CUfXfnvmA4W-29">
          <mxGeometry x="13.75" y="40" width="87.5" height="50" as="geometry" />
        </mxCell>
        <mxCell id="VWafMa577CUfXfnvmA4W-72" value="Экран-заставка" style="rhombus;whiteSpace=wrap;html=1;rounded=0;fontSize=18;strokeWidth=1;align=center;" vertex="1" parent="1">
          <mxGeometry x="120" y="370" width="130" height="80" as="geometry" />
        </mxCell>
        <mxCell id="VWafMa577CUfXfnvmA4W-100" value="" style="endArrow=none;html=1;rounded=0;fontSize=18;exitX=1;exitY=0.5;exitDx=0;exitDy=0;entryX=0;entryY=0.5;entryDx=0;entryDy=0;" edge="1" parent="1" source="VWafMa577CUfXfnvmA4W-72" target="VWafMa577CUfXfnvmA4W-67">
          <mxGeometry width="50" height="50" relative="1" as="geometry">
            <mxPoint x="790" y="560" as="sourcePoint" />
            <mxPoint x="295" y="410" as="targetPoint" />
          </mxGeometry>
        </mxCell>
        <mxCell id="VWafMa577CUfXfnvmA4W-101" value="" style="endArrow=classic;html=1;rounded=0;fontSize=18;entryX=0.5;entryY=1;entryDx=0;entryDy=0;" edge="1" parent="1" target="VWafMa577CUfXfnvmA4W-27">
          <mxGeometry width="50" height="50" relative="1" as="geometry">
            <mxPoint x="290" y="410" as="sourcePoint" />
            <mxPoint x="840" y="510" as="targetPoint" />
          </mxGeometry>
        </mxCell>
        <mxCell id="VWafMa577CUfXfnvmA4W-102" value="" style="endArrow=classic;html=1;rounded=0;fontSize=18;entryX=0.5;entryY=0;entryDx=0;entryDy=0;" edge="1" parent="1" target="VWafMa577CUfXfnvmA4W-62">
          <mxGeometry width="50" height="50" relative="1" as="geometry">
            <mxPoint x="290" y="400" as="sourcePoint" />
            <mxPoint x="300" y="360" as="targetPoint" />
          </mxGeometry>
        </mxCell>
        <mxCell id="VWafMa577CUfXfnvmA4W-103" value="" style="endArrow=classic;html=1;rounded=0;fontSize=18;entryX=0.5;entryY=1;entryDx=0;entryDy=0;exitX=0.5;exitY=0;exitDx=0;exitDy=0;" edge="1" parent="1" source="VWafMa577CUfXfnvmA4W-89" target="VWafMa577CUfXfnvmA4W-91">
          <mxGeometry width="50" height="50" relative="1" as="geometry">
            <mxPoint x="790" y="560" as="sourcePoint" />
            <mxPoint x="840" y="510" as="targetPoint" />
          </mxGeometry>
        </mxCell>
        <mxCell id="VWafMa577CUfXfnvmA4W-104" value="" style="endArrow=none;html=1;rounded=0;fontSize=18;entryX=0.5;entryY=1;entryDx=0;entryDy=0;" edge="1" parent="1" target="VWafMa577CUfXfnvmA4W-67">
          <mxGeometry width="50" height="50" relative="1" as="geometry">
            <mxPoint x="465" y="540" as="sourcePoint" />
            <mxPoint x="840" y="510" as="targetPoint" />
          </mxGeometry>
        </mxCell>
        <mxCell id="VWafMa577CUfXfnvmA4W-105" value="" style="endArrow=none;html=1;rounded=0;fontSize=18;" edge="1" parent="1">
          <mxGeometry width="50" height="50" relative="1" as="geometry">
            <mxPoint x="200" y="540" as="sourcePoint" />
            <mxPoint x="980" y="540" as="targetPoint" />
          </mxGeometry>
        </mxCell>
        <mxCell id="VWafMa577CUfXfnvmA4W-106" value="" style="endArrow=classic;html=1;rounded=0;fontSize=18;entryX=0.5;entryY=0;entryDx=0;entryDy=0;" edge="1" parent="1" target="VWafMa577CUfXfnvmA4W-83">
          <mxGeometry width="50" height="50" relative="1" as="geometry">
            <mxPoint x="260" y="540" as="sourcePoint" />
            <mxPoint x="840" y="510" as="targetPoint" />
          </mxGeometry>
        </mxCell>
        <mxCell id="VWafMa577CUfXfnvmA4W-107" value="" style="endArrow=classic;html=1;rounded=0;fontSize=18;entryX=0.5;entryY=0;entryDx=0;entryDy=0;" edge="1" parent="1" target="VWafMa577CUfXfnvmA4W-94">
          <mxGeometry width="50" height="50" relative="1" as="geometry">
            <mxPoint x="580" y="540" as="sourcePoint" />
            <mxPoint x="840" y="510" as="targetPoint" />
          </mxGeometry>
        </mxCell>
        <mxCell id="VWafMa577CUfXfnvmA4W-109" value="" style="endArrow=classic;html=1;rounded=0;fontSize=18;entryX=0.5;entryY=0;entryDx=0;entryDy=0;" edge="1" parent="1" target="VWafMa577CUfXfnvmA4W-88">
          <mxGeometry width="50" height="50" relative="1" as="geometry">
            <mxPoint x="920" y="540" as="sourcePoint" />
            <mxPoint x="920" y="560" as="targetPoint" />
          </mxGeometry>
        </mxCell>
        <mxCell id="VWafMa577CUfXfnvmA4W-110" value="" style="group" vertex="1" connectable="0" parent="1">
          <mxGeometry x="195" y="620" width="130" height="240" as="geometry" />
        </mxCell>
        <mxCell id="VWafMa577CUfXfnvmA4W-111" value="" style="rounded=1;whiteSpace=wrap;html=1;fontSize=18;fillColor=#f5f5f5;gradientColor=#b3b3b3;strokeColor=#666666;" vertex="1" parent="VWafMa577CUfXfnvmA4W-110">
          <mxGeometry width="130" height="240" as="geometry" />
        </mxCell>
        <mxCell id="VWafMa577CUfXfnvmA4W-112" value="" style="rounded=0;whiteSpace=wrap;html=1;fontSize=20;strokeWidth=1;align=center;fillColor=#FFF0CC;" vertex="1" parent="VWafMa577CUfXfnvmA4W-110">
          <mxGeometry x="10" y="20" width="110" height="190" as="geometry" />
        </mxCell>
        <mxCell id="VWafMa577CUfXfnvmA4W-113" value="" style="rounded=0;whiteSpace=wrap;html=1;fontSize=20;strokeWidth=1;align=center;" vertex="1" parent="VWafMa577CUfXfnvmA4W-110">
          <mxGeometry x="10" y="180" width="110" height="30" as="geometry" />
        </mxCell>
        <mxCell id="VWafMa577CUfXfnvmA4W-118" value="" style="rounded=0;whiteSpace=wrap;html=1;fontSize=18;strokeWidth=1;align=center;" vertex="1" parent="VWafMa577CUfXfnvmA4W-110">
          <mxGeometry x="20" y="30" width="90" height="130" as="geometry" />
        </mxCell>
        <mxCell id="VWafMa577CUfXfnvmA4W-119" value="" style="endArrow=none;html=1;rounded=0;fontSize=18;entryX=0.5;entryY=0;entryDx=0;entryDy=0;exitX=0.5;exitY=1;exitDx=0;exitDy=0;" edge="1" parent="VWafMa577CUfXfnvmA4W-110">
          <mxGeometry width="50" height="50" relative="1" as="geometry">
            <mxPoint x="65" y="60" as="sourcePoint" />
            <mxPoint x="65" y="30" as="targetPoint" />
          </mxGeometry>
        </mxCell>
        <mxCell id="VWafMa577CUfXfnvmA4W-120" value="Пицца" style="rounded=1;whiteSpace=wrap;html=1;fontSize=18;strokeWidth=1;align=center;fillColor=#EBEBEB;strokeColor=#EBEBEB;" vertex="1" parent="VWafMa577CUfXfnvmA4W-110">
          <mxGeometry x="26.5" y="40" width="77" height="30" as="geometry" />
        </mxCell>
        <mxCell id="VWafMa577CUfXfnvmA4W-122" value="Напитки" style="rounded=1;whiteSpace=wrap;html=1;fontSize=18;strokeWidth=1;align=center;fillColor=#EBEBEB;strokeColor=#EBEBEB;" vertex="1" parent="VWafMa577CUfXfnvmA4W-110">
          <mxGeometry x="26.5" y="80" width="77" height="30" as="geometry" />
        </mxCell>
        <mxCell id="VWafMa577CUfXfnvmA4W-123" value="Другое" style="rounded=1;whiteSpace=wrap;html=1;fontSize=18;strokeWidth=1;align=center;fillColor=#EBEBEB;strokeColor=#EBEBEB;" vertex="1" parent="VWafMa577CUfXfnvmA4W-110">
          <mxGeometry x="26.5" y="120" width="77" height="30" as="geometry" />
        </mxCell>
        <mxCell id="VWafMa577CUfXfnvmA4W-136" value="" style="group" vertex="1" connectable="0" parent="1">
          <mxGeometry x="515" y="620" width="130" height="240" as="geometry" />
        </mxCell>
        <mxCell id="VWafMa577CUfXfnvmA4W-137" value="" style="rounded=1;whiteSpace=wrap;html=1;fontSize=18;fillColor=#f5f5f5;gradientColor=#b3b3b3;strokeColor=#666666;" vertex="1" parent="VWafMa577CUfXfnvmA4W-136">
          <mxGeometry width="130" height="240" as="geometry" />
        </mxCell>
        <mxCell id="VWafMa577CUfXfnvmA4W-138" value="" style="rounded=0;whiteSpace=wrap;html=1;fontSize=20;strokeWidth=1;align=center;fillColor=#FFF0CC;" vertex="1" parent="VWafMa577CUfXfnvmA4W-136">
          <mxGeometry x="10" y="20" width="110" height="190" as="geometry" />
        </mxCell>
        <mxCell id="VWafMa577CUfXfnvmA4W-139" value="" style="rounded=0;whiteSpace=wrap;html=1;fontSize=20;strokeWidth=1;align=center;" vertex="1" parent="VWafMa577CUfXfnvmA4W-136">
          <mxGeometry x="10" y="180" width="110" height="30" as="geometry" />
        </mxCell>
        <mxCell id="VWafMa577CUfXfnvmA4W-140" value="" style="rounded=0;whiteSpace=wrap;html=1;fontSize=18;strokeWidth=1;align=center;" vertex="1" parent="VWafMa577CUfXfnvmA4W-136">
          <mxGeometry x="20" y="30" width="90" height="130" as="geometry" />
        </mxCell>
        <mxCell id="VWafMa577CUfXfnvmA4W-141" value="" style="endArrow=none;html=1;rounded=0;fontSize=18;entryX=0.5;entryY=0;entryDx=0;entryDy=0;exitX=0.5;exitY=1;exitDx=0;exitDy=0;" edge="1" parent="VWafMa577CUfXfnvmA4W-136">
          <mxGeometry width="50" height="50" relative="1" as="geometry">
            <mxPoint x="65" y="60" as="sourcePoint" />
            <mxPoint x="65" y="30" as="targetPoint" />
          </mxGeometry>
        </mxCell>
        <mxCell id="VWafMa577CUfXfnvmA4W-142" value="Тел:.." style="rounded=1;whiteSpace=wrap;html=1;fontSize=18;strokeWidth=1;align=center;fillColor=#EBEBEB;strokeColor=#EBEBEB;" vertex="1" parent="VWafMa577CUfXfnvmA4W-136">
          <mxGeometry x="26.5" y="40" width="77" height="30" as="geometry" />
        </mxCell>
        <mxCell id="VWafMa577CUfXfnvmA4W-143" value="Website:.." style="rounded=1;whiteSpace=wrap;html=1;fontSize=18;strokeWidth=1;align=center;fillColor=#EBEBEB;strokeColor=#EBEBEB;" vertex="1" parent="VWafMa577CUfXfnvmA4W-136">
          <mxGeometry x="26.5" y="80" width="77" height="30" as="geometry" />
        </mxCell>
        <mxCell id="VWafMa577CUfXfnvmA4W-144" value="" style="rounded=1;whiteSpace=wrap;html=1;fontSize=18;strokeWidth=1;align=center;fillColor=#EBEBEB;strokeColor=#EBEBEB;" vertex="1" parent="VWafMa577CUfXfnvmA4W-136">
          <mxGeometry x="26.5" y="120" width="77" height="30" as="geometry" />
        </mxCell>
      </root>
    </mxGraphModel>
  </diagram>
</mxfile>
